<svg width="57.000000" height="33.000000" viewBox="0 0 57 33" fill="none" xmlns="http://www.w3.org/2000/svg" xmlns:xlink="http://www.w3.org/1999/xlink">
	<desc>
			Created with Pixso.
	</desc>
	<defs>
		<clipPath id="clip51_18">
			<rect id="logo-cicil-white 1" width="57.000000" height="33.000000" fill="white" fill-opacity="0"/>
		</clipPath>
	</defs>
	<rect id="logo-cicil-white 1" width="57.000000" height="33.000000" fill="#FFFFFF" fill-opacity="0"/>
	<g clip-path="url(#clip51_18)">
		<path id="Shape" d="M14.95 19.92C13.53 18.93 11.98 20.2 11.98 20.2C9.83 21.63 6.95 21.18 5.33 19.16C3.71 17.14 3.88 14.2 5.72 12.39C7.57 10.57 10.48 10.46 12.45 12.14C13.22 12.61 14.18 12.6 14.94 12.11C14.94 12.11 16.65 10.69 14.24 8.79L14.32 8.79C10.65 6.17 5.61 6.77 2.64 10.16C-0.33 13.56 -0.27 18.67 2.78 22C5.83 25.32 10.88 25.8 14.48 23.09C16.53 21.21 14.95 19.92 14.95 19.92Z" fill="#D84727" fill-opacity="1.000000" fill-rule="nonzero"/>
		<path id="Shape" d="M40.73 19.92C39.32 18.93 37.77 20.2 37.77 20.2C35.62 21.63 32.74 21.17 31.13 19.15C29.51 17.13 29.68 14.21 31.52 12.39C33.36 10.58 36.27 10.47 38.24 12.14C39.01 12.6 39.97 12.6 40.72 12.11C40.72 12.11 42.43 10.69 40.03 8.79L40.1 8.79C36.43 6.18 31.4 6.78 28.43 10.17C25.47 13.57 25.53 18.67 28.57 22C31.62 25.32 36.66 25.79 40.27 23.09C42.32 21.21 40.73 19.92 40.73 19.92Z" fill="#D84727" fill-opacity="1.000000" fill-rule="nonzero"/>
		<path id="Oval" d="M22.78 3.65C22.78 4.89 21.95 5.9 20.92 5.9C19.9 5.9 19.07 4.89 19.07 3.65C19.07 2.41 19.9 1.4 20.92 1.4C21.95 1.4 22.78 2.41 22.78 3.65Z" fill="#D84727" fill-opacity="1.000000" fill-rule="evenodd"/>
		<path id="Shape" d="M22.78 9.19C22.73 8.2 21.92 7.42 20.93 7.42C19.94 7.42 19.12 8.2 19.07 9.19L19.07 22.65C19.04 23.34 19.38 23.99 19.97 24.35C20.56 24.7 21.29 24.7 21.88 24.35C22.47 23.99 22.82 23.34 22.78 22.65L22.78 9.19Z" fill="#D84727" fill-opacity="1.000000" fill-rule="nonzero"/>
		<path id="Oval" d="M48.68 3.65C48.68 4.89 47.85 5.9 46.83 5.9C45.8 5.9 44.97 4.89 44.97 3.65C44.97 2.41 45.8 1.4 46.83 1.4C47.85 1.4 48.68 2.41 48.68 3.65Z" fill="#D84727" fill-opacity="1.000000" fill-rule="evenodd"/>
		<path id="Shape" d="M48.69 9.19C48.64 8.2 47.82 7.42 46.83 7.42C45.84 7.42 45.03 8.2 44.98 9.19L44.98 22.65C44.94 23.34 45.29 23.99 45.88 24.35C46.46 24.7 47.2 24.7 47.79 24.35C48.37 23.99 48.72 23.34 48.69 22.65L48.69 9.19Z" fill="#D84727" fill-opacity="1.000000" fill-rule="nonzero"/>
		<path id="Shape" d="M56.7 2.34C56.74 1.65 56.39 1 55.8 0.64C55.22 0.29 54.48 0.29 53.89 0.64C53.31 1 52.96 1.65 53 2.34L53 9.19L53 22.65C52.96 23.34 53.31 23.99 53.89 24.35C54.48 24.7 55.22 24.7 55.8 24.35C56.39 23.99 56.74 23.34 56.7 22.65L56.7 9.19L56.7 2.34Z" fill="#D84727" fill-opacity="1.000000" fill-rule="nonzero"/>
		<path id="Shape" d="M26.58 27.81C25.74 27.02 24.3 27.53 24.3 27.53C23.4 28.44 22.19 28.94 20.93 28.94C19.66 28.94 18.45 28.44 17.56 27.53C17.56 27.53 16.11 27.02 15.27 27.81C14.69 28.41 14.55 29.32 14.93 30.07C16.51 31.69 18.67 32.61 20.92 32.61C23.18 32.61 25.34 31.69 26.92 30.07C27.31 29.32 27.17 28.41 26.58 27.81Z" fill="#D84727" fill-opacity="1.000000" fill-rule="nonzero"/>
	</g>
</svg>
